<?xml version="1.0" encoding="UTF-8" standalone="no"?>
<!-- Created with Inkscape (http://www.inkscape.org/) -->

<svg
   width="647.20001"
   height="400"
   viewBox="0 0 171.23833 105.83333"
   version="1.1"
   id="svg1"
   xml:space="preserve"
   inkscape:version="1.3.2 (091e20e, 2023-11-25, custom)"
   sodipodi:docname="Calzado Amayax20.svg"
   xmlns:inkscape="http://www.inkscape.org/namespaces/inkscape"
   xmlns:sodipodi="http://sodipodi.sourceforge.net/DTD/sodipodi-0.dtd"
   xmlns="http://www.w3.org/2000/svg"
   xmlns:svg="http://www.w3.org/2000/svg"><sodipodi:namedview
     id="namedview1"
     pagecolor="#ffffff"
     bordercolor="#000000"
     borderopacity="0.25"
     inkscape:showpageshadow="2"
     inkscape:pageopacity="0.0"
     inkscape:pagecheckerboard="true"
     inkscape:deskcolor="#d1d1d1"
     inkscape:document-units="px"
     labelstyle="default"
     inkscape:lockguides="false"
     showborder="false"
     inkscape:zoom="1"
     inkscape:cx="363"
     inkscape:cy="180.5"
     inkscape:window-width="1366"
     inkscape:window-height="705"
     inkscape:window-x="-8"
     inkscape:window-y="-8"
     inkscape:window-maximized="1"
     inkscape:current-layer="layer2"
     showguides="false" /><defs
     id="defs1"><linearGradient
       id="swatch2"><stop
         style="stop-color:#454545;stop-opacity:1;"
         offset="0"
         id="stop2" /></linearGradient></defs><g
     inkscape:groupmode="layer"
     id="layer2"
     inkscape:label="Logo"><path
       id="path1350"
       style="fill:#940809;fill-opacity:1;stroke:#940809;stroke-width:0.105833;stroke-linecap:round;stroke-linejoin:round;stroke-dasharray:none;stroke-opacity:1;paint-order:markers fill stroke"
       d="m 159.15724,2.0229872 -36.73972,0.069055 c 0.20365,0.8014928 0.35497,1.6154297 0.45297,2.4366333 0.0592,0.3945998 7e-5,2.7e-6 0.0591,0.394597 0.0638,0.626051 0.0968,1.2548872 0.0985,1.8841988 -0.0368,1.3097883 -0.20834,2.6122855 -0.51206,3.8867737 -0.19095,0.858102 -0.44102,1.70193 -0.74838,2.525418 0.67359,-1.519871 2.39757,-2.455522 4.05702,-2.495824 l 18.68005,-0.02959 c 3.92755,-0.0027 7.11223,3.187739 7.10959,7.122461 v 28.203786 4.685833 0.118356 9.697209 23.439033 0.0099 c -0.0459,2.153355 -1.67447,3.940778 -3.81084,4.182724 -0.21618,0.03002 -0.43285,0.0563 -0.64993,0.07884 -0.0262,0.0066 -0.0524,0.01316 -0.0787,0.01966 0.0787,0.01036 0.15749,0.02022 0.23632,0.02959 0.003,-4e-6 0.007,-4e-6 0.01,0 0.003,-4e-6 0.007,-4e-6 0.01,0 3.92035,-0.05473 7.72787,-1.322693 10.90074,-3.630115 3.52764,-2.46995 6.11407,-6.066188 7.33612,-10.20032 0.49647,-1.695382 0.75498,-3.451753 0.76809,-5.218538 0,-20.289828 4e-5,-40.544546 0,-60.1069142 -0.007,-3.8549376 -3.07582,-7.0038193 -6.92255,-7.1027358 z m 6.28248,70.5143948 c -0.0275,0.158208 -0.0571,0.316061 -0.0886,0.473521 0.0328,-0.156154 0.0597,-0.316279 0.0886,-0.473521 z M 158.271,84.227305 c -0.36444,0.279851 -0.73887,0.546379 -1.12258,0.79906 0.38168,-0.252882 0.75841,-0.517848 1.12258,-0.79906 z m -2.84583,1.805282 c -0.18551,0.09846 -0.37264,0.193831 -0.5613,0.286079 0.18941,-0.09068 0.37478,-0.188989 0.5613,-0.286079 z m -1.25059,0.591897 c -0.1534,0.06781 -0.30768,0.133577 -0.46282,0.197293 0.15531,-0.06204 0.30925,-0.131147 0.46282,-0.197293 z m -1.18166,0.463653 c -0.22178,0.07979 -0.44502,0.155432 -0.66961,0.226901 0.22537,-0.07044 0.44708,-0.148137 0.66961,-0.226901 z m -1.18166,0.384735 c -0.32599,0.09097 -0.65434,0.173211 -0.98471,0.246621 0.33124,-0.07445 0.6584,-0.154628 0.98471,-0.246621 z m -1.27029,0.305818 c -0.3201,0.06749 -0.64188,0.126686 -0.96503,0.177535 0.32328,-0.05021 0.64549,-0.110912 0.96503,-0.177535 z"
       sodipodi:nodetypes="ccccccccccccccccccccscccccccccccccccccccccccccccc" /><path
       id="path1318"
       style="fill:#940809;fill-opacity:1;stroke:#940809;stroke-width:0.10583333;stroke-linecap:round;stroke-linejoin:round;stroke-dasharray:none;stroke-opacity:1;paint-order:markers fill stroke"
       d="m 115.67223,40.594795 a 11.651158,11.672175 0 0 0 -11.5901,11.295324 11.651158,11.672175 0 0 0 -0.0591,0.374866 11.651158,11.672175 0 0 0 0.0591,0.374866 11.651158,11.672175 0 0 0 0.25603,2.002578 11.651158,11.672175 0 0 1 -0.25603,-2.002576 l -0.01,7.882065 a 30.908391,30.964147 0 0 1 1.91035,-1.913793 11.651158,11.672175 0 0 1 -0.95517,-1.785549 11.651158,11.672175 0 0 0 0.95517,1.785549 30.908391,30.964147 0 0 1 2.81629,-2.722715 30.908391,30.964147 0 0 1 18.06951,-6.491113 30.908391,30.964147 0 0 1 0.94533,-0.108513 h 10.57584 a 11.651158,11.672175 0 0 0 9.69944,-5.228405 11.651158,11.672175 0 0 0 1.55585,-3.462584 h -22.4415 z M 104.3677,54.790403 a 11.651158,11.672175 0 0 0 0.60068,1.884199 11.651158,11.672175 0 0 1 -0.60068,-1.884199 z" /><path
       id="path1278"
       style="fill:#940809;fill-opacity:1;stroke:#940809;stroke-width:0.10583333;stroke-linecap:round;stroke-linejoin:round;stroke-dasharray:none;stroke-opacity:1;paint-order:markers fill stroke"
       d="m 36.087556,66.470461 c -1.120795,0.56791 -2.205994,1.203731 -3.249559,1.903928 -3.903891,2.43071 -7.217478,5.703092 -9.699441,9.578832 -2.066102,3.229445 -3.515251,6.815365 -4.273664,10.575185 -0.216637,1.144337 -0.418807,2.241859 -0.433262,3.117284 0.05086,2.386748 0.831023,4.70048 2.235303,6.629212 1.444172,1.970458 3.469453,3.436958 5.790122,4.192588 l 77.004705,0.5623 C 101.47277,94.419023 93.830574,88.311396 85.008195,88.281784 H 41.700432 c -0.174547,-0.02233 -0.348542,-0.04868 -0.521889,-0.07884 -0.174547,-0.02558 -0.348619,-0.05517 -0.521908,-0.08877 -0.523576,-0.04705 -1.043381,-0.129444 -1.555851,-0.246719 -2.746984,-0.608616 -5.181376,-2.192424 -6.853615,-4.458941 -0.771296,-1.109236 -1.344385,-2.344268 -1.69371,-3.650018 -0.31112,-1.024204 -0.480105,-2.086422 -0.502205,-3.156772 0.05202,-2.943912 1.212781,-5.759352 3.249559,-7.882064 0.822602,-0.878225 1.775925,-1.623642 2.826133,-2.209742 -0.01311,-0.01317 -0.0263,-0.02634 -0.03945,-0.03952 z"
       sodipodi:nodetypes="cccccccccccccccccccc" /><path
       id="path1358"
       style="fill:#F84E29;fill-opacity:1;stroke:#F84E29;stroke-width:0.10583333;stroke-linecap:round;stroke-linejoin:round;stroke-dasharray:none;stroke-opacity:1;paint-order:markers fill stroke"
       d="m 103.09742,40.811822 -21.683433,5.129756 -11.629484,2.75231 -23.298355,5.504622 c 0.425183,0.70844 0.878511,1.399528 1.358897,2.071631 0.479301,0.671063 0.985203,1.322673 1.516467,1.953252 0.530255,0.630287 1.085415,1.239098 1.664165,1.825002 0.581247,0.586285 1.185684,1.149051 1.811883,1.686906 l 25.94724,-6.313544 15.223693,-3.699343 0.482501,-0.118357 c 4.913793,-1.328175 8.398446,-5.697822 8.606426,-10.792235 z m -50.259862,20.92348 c -0.62638,-0.539036 -1.231918,-1.100826 -1.811875,-1.6869 -0.579957,-0.586071 -1.133185,-1.194926 -1.664169,-1.825009 -0.530983,-0.630082 -1.037001,-1.282185 -1.516461,-1.953252 -0.47946,-0.671068 -0.933518,-1.362605 -1.358905,-2.071631 l -28.605971,6.76733 c 0.46616,-0.117403 0.935132,-0.21434 1.408143,-0.295949 -0.472942,0.08075 -0.942657,0.179444 -1.408143,0.295949 l -0.965021,0.226893 C 14.69093,61.879384 12.611509,62.969456 10.780381,64.408695 6.0564666,67.9626 3.250696,73.514996 3.1882288,79.432957 v 4.547724 0 c 0.075431,9.337072 6.9643472,17.010169 16.1760842,18.432889 l 7.092742,0.054 c -2.371442,-1.07893 -4.042031,-2.29118 -5.790122,-4.192648 -1.316392,-2.328608 -1.743089,-3.512693 -2.214215,-6.133506 0.02559,-1.224151 0.07039,-1.604763 0.195537,-2.468661 0.682331,-4.172669 2.210499,-8.161124 4.490301,-11.719516 2.481963,-3.875739 5.79555,-7.148121 9.699441,-9.578832 1.043569,-0.700193 2.128764,-1.336016 3.249559,-1.903918 -0.442542,-0.477454 -0.909247,-0.931848 -1.398304,-1.361368 0.487647,0.427744 0.952789,0.881241 1.398304,1.361368 0.01315,0.01313 0.0263,0.02634 0.03945,0.03952 0.123669,-0.06471 0.248349,-0.127138 0.374191,-0.187462 0.92493,-0.470906 1.908487,-0.815935 2.924603,-1.025941 5.635064,-1.675452 6.100931,-1.788731 13.411818,-3.561234 z M 82.191912,47.164826 c 0.114523,0.150809 0.232743,0.29885 0.354488,0.443913 -0.121764,-0.145082 -0.239946,-0.293085 -0.354488,-0.443913 z m 0.915784,1.114728 c 0.156254,0.162454 0.317139,0.320384 0.482521,0.473522 -0.165401,-0.1531 -0.326286,-0.311049 -0.482521,-0.473522 z m 1.053649,0.996353 c 0.173214,0.143173 0.350543,0.281383 0.531741,0.414324 -0.181217,-0.132865 -0.358527,-0.271113 -0.531741,-0.414324 z m 1.211199,0.887846 c 0.16159,0.102703 0.325828,0.201359 0.492354,0.295948 -0.166545,-0.09449 -0.330688,-0.193264 -0.492354,-0.295948 z m -14.22913,0.177535 c 0.135674,0.140309 0.273616,0.278348 0.413578,0.414324 -0.140057,-0.135919 -0.277847,-0.27411 -0.413578,-0.414324 z m 15.607731,0.572158 c 0.136627,0.0651 0.274512,0.127711 0.413578,0.187462 -0.139104,-0.05975 -0.276951,-0.122175 -0.413578,-0.187462 z m 1.349065,0.52285 c 0.162924,0.05631 0.327086,0.108812 0.492353,0.157872 -0.16521,-0.04887 -0.329429,-0.101557 -0.492353,-0.157872 z m 1.329362,0.345277 c 0.21222,0.04543 0.425659,0.08495 0.640071,0.118356 -0.214412,-0.03341 -0.427851,-0.07292 -0.640071,-0.118356 z m -16.769696,0.02959 c 0.180836,0.158063 0.364721,0.312595 0.551445,0.463652 -0.186743,-0.151 -0.370571,-0.305627 -0.551445,-0.463652 z m 1.752792,1.351498 c 0.175119,0.124657 0.352449,0.246354 0.531741,0.364997 -0.179311,-0.118738 -0.356565,-0.24034 -0.531741,-0.364997 z m 1.752792,1.06542 c 0.249664,0.1405 0.502472,0.275389 0.758233,0.404455 -0.255742,-0.129047 -0.50855,-0.263935 -0.758233,-0.404455 z m -53.972231,6.165594 c 0.555712,7.73e-4 1.105346,0.02997 1.654313,0.07884 -0.550034,-0.0504 -1.101992,-0.07674 -1.654313,-0.07884 z m 0,0 c -0.440506,0.0077 -0.880611,0.03073 -1.319518,0.0691 0.437468,-0.03799 0.879868,-0.06166 1.319518,-0.0691 z m -1.614932,0.09869 c -0.422006,0.04505 -0.842388,0.10423 -1.260434,0.177535 0.418994,-0.07159 0.837618,-0.134201 1.260434,-0.177535 z m 3.869929,0.04925 c 0.542716,0.06586 1.08267,0.1447 1.614925,0.25649 -0.534389,-0.108621 -1.0732,-0.194238 -1.614925,-0.25649 z m 1.634629,0.25649 c 0.587992,0.124084 1.171316,0.285087 1.74294,0.463653 -0.573339,-0.182117 -1.154967,-0.33682 -1.74294,-0.463653 z m 1.959583,0.5327 c 0.587782,0.191337 1.167314,0.403634 1.733088,0.651076 0.591461,0.258685 1.170287,0.550129 1.733088,0.868107 -0.562591,-0.318703 -1.141037,-0.608448 -1.733088,-0.868107 -0.566803,-0.245094 -1.145191,-0.462373 -1.733088,-0.651076 z m 3.476043,1.529072 c 0.558667,0.316165 1.099001,0.653347 1.624778,1.025941 -0.523985,-0.36919 -1.066264,-0.711603 -1.624778,-1.025935 z m 1.644481,1.04568 c 0.521508,0.370705 1.031964,0.769318 1.516467,1.193646 C 34.194431,64.675868 33.6883,64.277464 33.162962,63.905557 Z M 20.410904,65.04003 c -0.194054,0.02329 -0.387737,0.04963 -0.580982,0.07884 0.193245,-0.02921 0.386928,-0.05555 0.580982,-0.07884 z m -1.851264,0.27621 c -0.210896,0.04582 -0.420999,0.09507 -0.630217,0.147946 0.209218,-0.05288 0.419321,-0.102321 0.630217,-0.147946 z m -1.614932,0.404455 c -0.287618,0.08209 -0.573266,0.170854 -0.856702,0.26636 0.283436,-0.09545 0.569084,-0.184407 0.856702,-0.26636 z m -1.733098,0.591898 c -0.261596,0.09946 -0.520967,0.204718 -0.777925,0.315668 0.256958,-0.110911 0.516329,-0.216192 0.777925,-0.315668 z m -0.354497,3.650021 c 0.287601,0.342585 0.57976,0.681314 0.876396,1.016092 -0.296636,-0.334778 -0.588795,-0.673488 -0.876396,-1.016092 z m 89.205327,1.77571 c -0.0137,0.10843 -0.0269,0.216955 -0.0395,0.325538 0.0126,0.108621 0.0257,0.217108 0.0395,0.325538 z m -86.773092,0.956989 c 0.224216,0.235664 0.45071,0.469151 0.679453,0.700404 -0.228743,-0.231253 -0.455239,-0.46474 -0.679453,-0.700404 z m 2.698119,2.614211 c 0.143621,0.135728 0.288057,0.270502 0.433274,0.404455 -0.145221,-0.13401 -0.289646,-0.268784 -0.433274,-0.404455 z M 4.0449307,84.414738 c 0.1208798,0.458785 0.2588361,0.912892 0.4135802,1.361368 -0.154745,-0.448457 -0.2927006,-0.902564 -0.4135802,-1.361368 z m 0.6400647,1.913794 c 0.1734365,0.451015 0.3639531,0.895272 0.5711347,1.331759 C 5.0489484,87.223804 4.8584325,86.779547 4.6849954,86.328532 Z m 0.9453264,2.022305 c 0.1948757,0.368414 0.4017773,0.730337 0.6203713,1.085139 -0.218594,-0.354802 -0.4254956,-0.716725 -0.6203713,-1.085139 z m 1.0930329,1.795412 c 0.229023,0.336458 0.4687589,0.665451 0.718842,0.986502 C 7.1921136,90.8117 6.9523777,90.482707 6.7233547,90.146249 Z m 1.3096718,1.686906 c 0.2445474,0.283636 0.4974011,0.55998 0.7582314,0.828649 C 8.5304295,92.393116 8.2775758,92.116791 8.0330265,91.833155 Z M 9.4313211,93.29316 C 9.7343133,93.572883 10.046304,93.842678 10.3668,94.102089 10.046304,93.842678 9.7343133,93.572902 9.4313211,93.29316 Z m 1.5952379,1.33176 c 0.302288,0.219513 0.610966,0.430054 0.925632,0.631356 -0.314668,-0.201302 -0.623344,-0.411843 -0.925632,-0.631356 z m 1.762641,1.164056 c 0.288061,0.162072 0.58029,0.316757 0.876396,0.463652 C 13.36949,96.105828 12.7892,95.788976 12.7892,95.788976 Z m 1.851264,0.956894 c 0.430229,0.183838 0.867084,0.351618 1.309672,0.503108 -0.442588,-0.15157 -0.879441,-0.31931 -1.309672,-0.503108 z m 1.821723,0.700405 c 0.665675,0.21815 1.342879,0.3993 2.028512,0.542557 -0.685634,-0.143357 -1.362836,-0.324407 -2.028512,-0.542557 z"
       sodipodi:nodetypes="cccccccccccccsssccccccccccccccccccccccccccccccccccccccccccccccccccccccccccccccccccccccccccccccccccccccccccccccccccccccccccccccccccccccccccccccccccscscccccc" /><path
       id="path1336"
       style="fill:#F84E29;fill-opacity:1;stroke:#F84E29;stroke-width:0.10583333;stroke-linecap:round;stroke-linejoin:miter;stroke-dasharray:none;stroke-opacity:1;paint-order:markers fill stroke"
       d="m 115.67223,2.0131222 c -0.20435,0.027466 -0.40792,0.06036 -0.61052,0.098648 -4.99646,0.2904368 -9.24958,3.7451297 -10.56599,8.5824718 -0.19888,0.758526 -0.32095,1.535204 -0.36434,2.318255 -0.0427,0.222505 -0.0787,0.446204 -0.10824,0.670815 0.0299,0.218007 0.0661,0.435122 0.10824,0.651085 0.0299,0.420156 0.0825,0.838383 0.15759,1.252845 -0.0751,-0.41446 -0.12767,-0.832687 -0.15759,-1.252845 l -0.0196,11.502488 c 2.41008,-0.06357 4.7861,-0.585751 7.00133,-1.538922 -0.36707,-0.165508 -0.72533,-0.349839 -1.07334,-0.552439 0.34801,0.2026 0.70627,0.386988 1.07334,0.552439 4.9488,-2.027135 8.8165,-6.04863 10.65461,-11.078297 0.30737,-0.823487 0.55743,-1.667313 0.74838,-2.525419 0.30373,-1.2744892 0.47532,-2.5769824 0.51206,-3.886773 -0.002,-0.6293116 -0.0347,-1.2581477 -0.0985,-1.8841987 -3e-5,-4.2e-6 -0.0149,-0.099324 -0.0591,-0.3945971 -0.27321,-0.2130933 -0.55579,-0.4138795 -0.84686,-0.6017591 0.29107,0.1878815 0.57365,0.3886658 0.84686,0.6017591 -0.0979,-0.8212037 -0.24938,-1.6351431 -0.45302,-2.4366369 l -5.26817,0.00987 c 0.3506,0.046575 0.6989,0.1091171 1.0438,0.1874329 -0.34492,-0.078316 -0.6932,-0.1408577 -1.0438,-0.1874329 -0.48999,-0.060917 -0.98333,-0.090573 -1.47708,-0.088785 z m 4.17519,0.7793281 c 0.28712,0.1136662 0.56964,0.2387203 0.84686,0.3748668 -0.27722,-0.1361463 -0.55974,-0.2612009 -0.84686,-0.3748668 z m 0.94532,0.4241914 c 0.31948,0.1565972 0.63163,0.3277689 0.93548,0.5129753 -0.30383,-0.185207 -0.616,-0.3563774 -0.93548,-0.5129753 z m -0.19694,2.1406858 c -0.0699,0.03753 -0.13891,0.077008 -0.20679,0.1183757 0.0678,-0.041368 0.13682,-0.080845 0.20679,-0.1183757 z m -1.64448,1.5586569 c -0.0414,0.06794 -0.0806,0.137027 -0.11814,0.207164 0.0375,-0.07014 0.0768,-0.139221 0.11814,-0.207164 z m 1.94974,6.0077296 c 0.052,0.02407 0.10462,0.04709 0.15759,0.06905 -0.053,-0.02195 -0.10557,-0.04499 -0.15759,-0.06905 z m -16.54321,3.038393 c 0.0709,0.332408 0.15645,0.661552 0.25603,0.986491 -0.0997,-0.324939 -0.18503,-0.654083 -0.25603,-0.986491 z m 0.3348,1.262708 c 0.13454,0.416304 0.29235,0.824697 0.47267,1.22325 0.19018,0.409966 0.40383,0.808522 0.64007,1.193655 -0.23624,-0.385133 -0.44995,-0.783689 -0.64007,-1.193655 -0.18026,-0.398553 -0.33812,-0.806946 -0.47267,-1.22325 z m 1.1915,2.545148 c 0.21268,0.340493 0.44275,0.669761 0.68929,0.986491 -0.24656,-0.31673 -0.47663,-0.645998 -0.68929,-0.986491 z m 0.84686,1.183791 c 0.27042,0.341497 0.55971,0.66755 0.86654,0.976633 0.3064,0.2936 0.62855,0.57023 0.96503,0.828649 -0.33648,-0.258419 -0.65863,-0.535049 -0.96503,-0.828649 -0.30683,-0.309083 -0.59612,-0.635136 -0.86654,-0.976633 z m 2.16637,2.061766 c 0.22112,0.159209 0.44775,0.310514 0.67946,0.453783 -0.23171,-0.143173 -0.45834,-0.294612 -0.67946,-0.453783 z"
       sodipodi:nodetypes="ccccccccccccccccccccccccccccccccccccccccccccccccccccccccccc" /><path
       id="path1345"
       style="fill:#F84E29;fill-opacity:1;stroke:#F84E29;stroke-width:0.10583333;stroke-linecap:round;stroke-linejoin:round;stroke-dasharray:none;stroke-opacity:1;paint-order:markers fill stroke"
       d="m 127.81376,49.285784 a 30.908391,30.964147 0 0 0 -0.94533,0.108513 30.908391,30.964147 0 0 0 -18.06951,6.491113 30.908391,30.964147 0 0 0 -2.06791,3.728937 30.908391,30.964147 0 0 1 2.06791,-3.728937 30.908391,30.964147 0 0 0 -2.81629,2.722715 30.908391,30.964147 0 0 0 -1.91035,1.913793 l -0.01,11.216406 v 0.651095 a 30.908391,30.964147 0 0 0 30.86096,30.640391 h 13.58907 13.52998 a 4.2942048,4.3019511 0 0 0 4.29336,-4.301091 v -0.20716 c 1.3e-4,-9.530693 0,-19.402083 0,-29.28892 a 19.006552,19.040838 0 0 1 -0.76808,5.218536 19.006552,19.040838 0 0 1 -7.33612,10.20032 19.006552,19.040838 0 0 1 -10.9008,3.630289 4.2942048,4.3019511 0 0 1 -0.01,0 4.2942048,4.3019511 0 0 1 -0.01,0 19.006552,19.040838 0 0 1 -0.23633,-0.02959 19.006552,19.040838 0 0 1 -0.25602,0.02959 19.006552,19.040838 0 0 1 -19.00501,-19.049147 v -8.276663 a 11.651158,11.672175 0 0 1 7.38536,-10.752755 11.651158,11.672175 0 0 1 4.26382,-0.917435 z" /></g></svg>
